<?xml version="1.0" encoding="UTF-8" standalone="no"?><!DOCTYPE svg PUBLIC "-//W3C//DTD SVG 1.1//EN" "http://www.w3.org/Graphics/SVG/1.1/DTD/svg11.dtd"><svg width="100%" height="100%" viewBox="0 0 3118 509" version="1.1" xmlns="http://www.w3.org/2000/svg" xmlns:xlink="http://www.w3.org/1999/xlink" xml:space="preserve" xmlns:serif="http://www.serif.com/" style="fill-rule:evenodd;clip-rule:evenodd;stroke-linejoin:round;stroke-miterlimit:2;"><g><path d="M147.293,150.181c0,-12.515 5.776,-22.142 16.366,-28.881c10.59,-6.739 23.105,-10.589 39.471,-10.589c35.62,-0 61.613,16.365 77.016,49.097l105.897,-57.762c-18.292,-32.732 -44.284,-57.762 -76.054,-76.053c-31.769,-17.329 -67.389,-25.993 -106.859,-25.993c-51.986,-0 -95.308,13.478 -129.965,40.433c-35.62,27.919 -52.948,65.464 -52.948,112.636c-0,31.769 8.664,57.762 25.993,77.979c16.366,21.179 37.545,36.583 61.612,46.21c24.068,9.627 49.098,17.328 73.166,24.067c24.067,6.739 45.247,13.478 62.575,21.18c16.366,8.664 25.03,19.254 25.03,31.769c0,27.918 -22.142,41.396 -66.426,41.396c-49.098,-0 -79.904,-21.18 -94.345,-62.576l-107.822,60.65c35.62,76.054 103.009,114.562 202.167,114.562c54.874,-0 101.084,-13.478 138.629,-40.434c36.582,-25.993 54.874,-64.501 54.874,-113.598c-0,-32.732 -8.665,-59.688 -25.03,-81.83c-17.329,-22.142 -38.508,-37.545 -62.576,-47.172c-24.067,-8.664 -49.098,-16.366 -73.165,-23.105c-24.068,-5.776 -45.247,-12.515 -61.613,-21.179c-17.329,-7.702 -25.993,-18.292 -25.993,-30.807Z" style="fill-rule:nonzero;"/><path d="M940.558,309.989l-87.606,-296.511l-117.449,-0l-87.606,295.549l-81.829,-295.549l-131.89,-0l153.069,481.35l118.412,-0l88.569,-291.698l88.568,291.698l118.412,-0l153.069,-481.35l-131.889,-0l-81.83,296.511Z" style="fill-rule:nonzero;"/><path d="M2356.69,0c-63.538,0 -111.673,23.105 -143.442,69.314c-27.919,-46.209 -72.203,-69.314 -130.928,-69.314c-60.65,0 -104.934,21.179 -133.815,64.501c0,-0 -3.618,-7.276 -8.123,-16.332c-10.57,-21.253 -32.261,-34.691 -55.998,-34.691c-27.688,-0 -60.067,-0 -60.067,-0l-0,481.35l124.188,-0l0,-270.519c0,-35.62 8.664,-62.575 25.03,-80.867c16.366,-18.291 37.546,-27.918 65.464,-27.918c25.993,0 45.247,7.702 59.687,24.068c14.441,16.365 21.18,38.508 21.18,67.389l-0,287.847l124.188,-0l-0,-270.519c-0,-35.62 7.702,-62.575 24.067,-80.867c15.404,-18.291 37.546,-27.918 65.464,-27.918c25.993,0 45.247,7.702 59.687,24.068c14.441,16.365 21.18,38.508 21.18,67.389l-0,287.847l124.188,-0l0,-296.512c0,-60.65 -16.366,-108.785 -49.097,-144.405c-33.695,-35.62 -77.979,-53.911 -132.853,-53.911Z" style="fill-rule:nonzero;"/><path d="M3112.41,305.176c2.889,-18.291 4.814,-34.657 4.814,-51.023c-0,-72.203 -23.105,-131.89 -68.352,-180.988c-46.209,-49.097 -104.934,-73.165 -175.211,-73.165c-74.128,0 -135.741,24.068 -182.913,72.203c-47.172,49.097 -71.24,109.747 -71.24,181.95c0,73.165 24.068,133.815 72.203,181.95c48.135,48.135 111.673,72.203 191.577,72.203c92.419,-0 162.696,-34.658 209.868,-103.009l-100.12,-57.762c-24.068,31.769 -60.65,48.135 -107.823,48.135c-74.128,-0 -119.375,-29.844 -135.74,-90.494l362.937,-0Zm-364.863,-96.27c6.739,-30.806 21.18,-54.874 43.322,-72.203c22.142,-16.365 49.097,-25.03 82.792,-25.03c27.918,0 53.911,7.702 76.053,24.068c22.142,16.366 36.583,40.433 43.322,73.165l-245.489,-0Z" style="fill-rule:nonzero;"/><path d="M1678.08,126.271c1.273,2.187 2.525,4.413 3.747,6.665c39.595,72.928 39.695,156.778 7.513,226.848l25.481,46.933c11.592,21.352 11.037,47.242 -1.461,68.078c-12.366,20.617 -35.594,33.776 -59.635,33.604c-52.849,-0.379 -133.24,-0.092 -186.09,-0.129c-92.782,-0.064 -184.421,-46.279 -231.653,-133.275c-66.798,-123.034 -21.142,-277.154 101.893,-343.952c73.98,-40.166 159.2,-39.672 229.93,-6.139c-2.486,7.864 -3.826,16.231 -3.826,24.908c0,45.62 37.039,82.658 82.659,82.658c11.127,0 21.743,-2.203 31.442,-6.199Zm-89.995,290.016c5.733,0.007 11.046,-3.008 13.981,-7.934c2.935,-4.926 3.057,-11.033 0.321,-16.072c-0.002,-0.004 -0.003,-0.006 -0.003,-0.006c-10.721,-19.747 -10.803,-43.56 -0.37,-63.09c24.23,-46.156 25.75,-103.174 -0.97,-152.39c-42.592,-78.449 -140.861,-107.56 -219.31,-64.969c-78.448,42.592 -107.56,140.861 -64.968,219.31c30.632,56.421 90.76,85.17 150.933,85.212c33.698,0.024 78.556,-0.083 120.386,-0.061Z" style="fill:url(#_Linear1);"/><circle cx="1646.64" cy="49.812" r="49.634" style="fill:#f66160;"/></g><defs><linearGradient id="_Linear1" x1="0" y1="0" x2="1" y2="0" gradientUnits="userSpaceOnUse" gradientTransform="matrix(494.828,-494.828,494.828,494.828,1205.23,494.828)"><stop offset="0" style="stop-color:#f6526a;stop-opacity:1"/><stop offset="1" style="stop-color:#f9b328;stop-opacity:1"/></linearGradient></defs></svg>